<?xml version="1.0" standalone="no"?>
<!DOCTYPE svg PUBLIC "-//W3C//DTD SVG 20010904//EN"
 "http://www.w3.org/TR/2001/REC-SVG-20010904/DTD/svg10.dtd">
<svg version="1.0" xmlns="http://www.w3.org/2000/svg"
 width="1106.000000pt" height="1280.000000pt" viewBox="0 0 1106.000000 1280.000000"
 preserveAspectRatio="xMidYMid meet">
<g transform="translate(0.000000,1280.000000) scale(0.100000,-0.100000)"
fill="#000000" stroke="none">
<path d="M5409 12070 c-169 -21 -303 -78 -436 -185 -155 -124 -232 -223 -338
-435 -120 -239 -168 -300 -299 -378 -95 -57 -164 -129 -281 -293 -195 -272
-254 -341 -357 -410 -60 -41 -98 -76 -98 -91 0 -5 14 -22 32 -38 17 -16 30
-31 27 -33 -2 -2 -44 -25 -92 -51 -385 -208 -590 -472 -703 -908 -8 -34 -43
-115 -76 -182 -33 -67 -85 -184 -115 -261 -89 -229 -130 -298 -223 -384 -329
-300 -440 -514 -515 -1001 -27 -173 -42 -243 -57 -273 -5 -9 -31 -28 -58 -42
-62 -32 -79 -57 -176 -265 -68 -146 -77 -171 -76 -219 2 -56 -17 -104 -43
-115 -9 -3 -29 -6 -45 -6 -16 0 -67 -14 -113 -30 -47 -17 -98 -30 -114 -30
-65 0 -205 -100 -220 -157 -9 -37 2 -103 26 -160 17 -37 37 -62 74 -90 37 -28
56 -50 68 -83 9 -24 22 -46 29 -48 6 -2 32 -48 57 -101 44 -92 46 -99 44 -182
-1 -47 -6 -131 -10 -187 -9 -100 -11 -107 -91 -275 -45 -95 -88 -179 -96 -187
-33 -38 -46 -93 -39 -164 11 -115 39 -188 89 -234 103 -95 195 -75 303 65 36
47 46 42 38 -20 -15 -118 50 -214 160 -237 72 -15 107 -8 195 37 88 46 105 72
157 246 22 73 43 127 50 127 11 0 43 -86 43 -116 0 -23 54 -77 95 -95 48 -22
128 -24 182 -5 62 22 182 114 203 156 l19 37 88 7 c118 9 161 22 199 60 36 36
54 102 54 196 0 33 5 90 12 128 6 37 8 80 5 95 -8 30 -52 57 -107 66 -44 8
-48 32 -24 122 12 46 18 110 20 226 1 89 5 166 8 171 3 5 27 10 52 10 26 1 62
6 81 13 19 6 37 8 41 4 4 -3 5 -53 3 -111 -2 -78 -8 -117 -23 -150 -14 -32
-21 -77 -25 -153 -6 -115 3 -162 41 -216 18 -26 20 -41 17 -139 -3 -96 -6
-114 -26 -140 -34 -47 -45 -91 -45 -186 0 -112 21 -184 66 -225 l34 -31 0 -97
c0 -87 -2 -97 -21 -107 -11 -6 -29 -26 -39 -43 -17 -28 -20 -51 -20 -167 0
-147 9 -177 65 -216 64 -46 63 -45 70 -134 l7 -85 -35 -36 c-37 -38 -67 -116
-67 -175 0 -39 27 -159 42 -188 6 -12 28 -37 50 -56 37 -33 39 -39 48 -119 21
-188 70 -264 149 -231 51 21 56 52 34 206 l-20 137 22 26 c12 14 29 40 38 56
21 41 25 26 30 -140 4 -107 11 -166 32 -249 18 -74 25 -120 20 -145 -16 -91
-73 -247 -132 -361 -72 -140 -83 -187 -72 -300 13 -126 10 -277 -7 -358 -16
-76 -70 -232 -164 -474 -56 -141 -63 -209 -35 -317 18 -71 109 -257 144 -294
57 -62 117 -72 196 -32 l49 24 35 -22 c40 -24 120 -28 170 -7 27 11 35 9 68
-11 31 -19 52 -24 110 -24 60 0 75 3 95 23 32 29 43 28 58 -8 16 -40 81 -64
151 -58 47 5 57 11 102 57 27 29 55 50 61 48 6 -2 24 -23 40 -46 43 -64 97
-85 201 -78 133 9 221 34 266 74 59 53 68 96 67 313 0 254 -15 292 -191 483
-54 59 -95 117 -132 187 l-55 101 31 207 c29 193 31 213 20 299 -11 81 -10
100 7 175 11 45 23 105 27 133 11 78 35 130 139 303 120 200 159 282 189 400
29 109 67 172 173 283 88 92 133 162 166 254 51 141 61 213 62 450 l1 220 39
108 c21 60 45 111 53 114 21 8 54 -27 164 -174 55 -72 125 -153 155 -180 31
-26 93 -82 138 -124 44 -41 92 -82 106 -91 14 -9 33 -32 44 -51 l19 -36 -65
-70 c-120 -130 -183 -287 -182 -456 1 -144 52 -309 128 -416 89 -123 92 -252
15 -791 -32 -231 -36 -331 -15 -441 25 -128 66 -185 166 -231 106 -48 208 -59
505 -58 149 1 278 -1 287 -4 9 -3 58 -51 109 -107 112 -125 170 -174 252 -214
129 -64 265 -95 422 -95 82 0 105 -4 127 -19 68 -49 223 -75 356 -59 92 10
158 35 208 80 27 23 44 30 76 30 59 0 121 39 141 89 9 22 21 42 27 46 18 11
10 47 -24 104 -19 31 -41 80 -50 110 -24 82 -53 111 -195 196 -119 72 -379
272 -596 457 -43 37 -146 115 -230 173 -213 148 -274 201 -330 286 -55 83 -81
150 -91 234 -6 53 -4 62 34 138 38 75 85 179 149 330 35 85 61 194 74 320 8
77 19 126 34 157 13 25 33 86 46 135 21 83 23 108 21 316 -2 204 0 232 18 293
18 58 26 69 54 81 59 25 68 84 42 263 -25 163 -30 262 -16 262 7 0 50 -8 97
-17 83 -17 85 -17 99 1 16 22 18 138 5 221 -5 28 -5 58 1 70 6 14 2 42 -16 95
-13 41 -21 79 -17 83 10 10 85 -22 164 -72 72 -46 87 -50 87 -22 0 13 -39 51
-113 109 -169 134 -184 181 -136 422 21 107 21 114 6 159 -10 25 -17 56 -17
67 0 25 -65 127 -104 163 -26 25 -26 26 -20 126 17 253 -90 532 -300 791 -24
28 -105 163 -180 299 l-138 247 21 82 c12 45 21 89 21 98 0 9 28 58 62 109 34
52 79 129 100 172 22 42 43 77 48 77 4 0 41 -36 82 -81 150 -166 224 -241 277
-282 50 -39 60 -53 136 -212 50 -102 107 -203 142 -250 64 -85 233 -254 373
-371 47 -40 97 -85 112 -100 28 -30 128 -191 128 -206 0 -4 -20 -36 -45 -71
-65 -88 -106 -176 -108 -229 -2 -38 4 -53 40 -100 23 -31 68 -84 100 -118 l58
-63 -2 -121 c-2 -77 2 -134 10 -156 10 -29 9 -48 -12 -135 -13 -55 -33 -118
-44 -140 -30 -57 -36 -196 -12 -275 15 -48 16 -64 6 -92 -7 -18 -17 -119 -24
-224 -9 -166 -9 -202 5 -265 11 -51 13 -82 6 -103 -5 -17 -9 -83 -8 -146 1
-63 -1 -155 -4 -205 -4 -61 -1 -116 10 -173 9 -45 13 -94 9 -110 -17 -67 -34
-423 -26 -557 1 -22 -1 -100 -5 -173 -5 -112 -4 -140 10 -177 44 -115 184
-112 244 5 21 41 23 57 21 175 -1 72 3 148 9 170 17 59 15 203 -4 264 -8 28
-13 60 -9 70 6 21 25 244 32 389 3 73 1 117 -9 150 -14 47 -15 161 -1 465 l5
117 42 0 c27 0 61 10 90 25 l47 25 8 -23 c5 -12 11 -42 15 -67 8 -57 37 -105
73 -123 36 -19 184 -28 248 -16 34 6 60 19 82 41 36 34 41 50 67 199 10 52 21
102 26 110 14 22 43 -2 54 -44 8 -30 6 -40 -8 -56 -31 -34 -31 -98 -2 -202 50
-175 77 -220 145 -239 39 -11 55 -8 163 27 89 28 131 67 150 139 7 24 16 44
22 44 5 0 35 -24 66 -54 65 -62 115 -81 170 -66 52 15 98 46 119 81 25 41 44
178 39 277 -3 63 -9 85 -32 121 -15 24 -38 71 -51 105 -13 33 -44 107 -69 162
-44 97 -47 108 -57 237 -6 75 -9 145 -7 157 2 15 19 28 63 46 33 13 65 24 72
24 18 0 30 28 38 90 10 75 17 89 66 146 55 63 79 117 79 178 0 47 -3 52 -58
105 -32 31 -72 65 -89 76 -17 11 -72 48 -122 82 -64 43 -108 65 -147 74 -40 9
-58 18 -64 33 -5 12 -18 47 -31 79 -12 32 -46 96 -76 143 l-55 84 12 67 c8 46
9 76 2 93 -12 31 -115 158 -210 260 l-69 75 -59 -2 c-33 -2 -70 -4 -83 -5 -20
-3 -31 9 -71 80 -27 46 -72 142 -100 215 -156 395 -318 623 -536 756 -237 145
-259 169 -464 516 -45 77 -116 184 -156 238 -41 54 -92 133 -114 175 -64 122
-166 259 -275 368 -138 138 -243 204 -491 308 -177 74 -317 170 -223 152 19
-3 66 -9 105 -12 63 -6 78 -3 127 19 66 30 87 59 62 87 -10 11 -47 37 -84 59
-93 55 -188 154 -357 372 -143 184 -187 229 -254 264 -67 34 -99 65 -131 130
-17 35 -55 90 -84 122 -28 32 -74 96 -100 143 -87 155 -138 224 -240 325 -107
107 -179 153 -278 179 -71 19 -242 27 -328 16z m-1869 -4190 c0 -14 -16 -53
-36 -85 -19 -33 -49 -85 -66 -117 -27 -51 -48 -73 -48 -51 0 41 73 240 107
292 15 23 16 24 29 6 8 -10 14 -31 14 -45z m-264 -617 c-15 -67 -17 -261 -3
-348 8 -49 12 -95 10 -102 -3 -7 -21 -17 -40 -24 -49 -16 -100 -64 -108 -102
-11 -49 -16 -51 -36 -18 -10 17 -43 45 -74 62 -30 17 -55 37 -55 44 0 27 35
95 110 210 42 66 101 162 129 213 52 92 79 118 67 65z m5384 -1077 c0 -32 -13
-75 -21 -70 -5 3 -9 23 -9 45 0 28 4 39 15 39 8 0 15 -6 15 -14z m-5434 -46
c6 -19 15 -49 18 -66 7 -31 7 -31 -45 -38 -28 -4 -54 -4 -57 -1 -6 6 8 68 27
118 15 38 43 32 57 -13z m5431 -257 c-9 -45 -26 -83 -37 -83 -13 0 -13 24 2
71 13 46 44 56 35 12z m-5466 -160 c-8 -14 -10 -3 -11 43 0 33 3 64 8 68 11
12 14 -92 3 -111z m142 -60 c7 -38 -1 -57 -19 -42 -15 12 -18 37 -8 63 8 22
21 12 27 -21z m5312 -93 c0 -41 -2 -45 -32 -53 -49 -15 -63 -4 -63 46 0 24 3
47 7 51 4 4 25 6 48 4 l40 -3 0 -45z m-5407 -132 l3 -85 -61 0 -60 -1 0 83 0
84 48 4 c26 2 52 3 57 2 6 -1 11 -40 13 -87z m141 -148 c19 -104 80 -347 100
-398 10 -26 41 -83 68 -127 88 -146 241 -579 268 -759 l7 -41 -72 -49 c-147
-101 -248 -264 -280 -453 -6 -40 -16 -75 -21 -79 -5 -3 -9 -4 -9 -2 0 23 -32
173 -40 190 -6 13 -34 44 -62 69 l-51 47 -5 79 -4 79 36 27 c57 44 66 71 66
199 0 158 -11 188 -88 250 -20 16 -22 27 -22 108 0 80 2 92 21 108 12 9 32 40
45 67 20 42 24 66 24 145 0 111 -11 158 -47 201 -25 30 -27 38 -29 148 -2 113
-1 117 27 160 16 25 29 52 29 62 0 26 12 51 20 42 4 -4 13 -37 19 -73z m5219
-7 c-2 -44 -7 -58 -18 -58 -11 0 -16 13 -18 44 -4 52 2 71 23 71 13 0 15 -10
13 -57z m1342 -174 c0 -11 -4 -17 -10 -14 -5 3 -10 13 -10 21 0 8 5 14 10 14
6 0 10 -9 10 -21z m-1317 -122 c6 -68 1 -77 -38 -77 -38 0 -45 12 -45 80 0 44
3 49 28 58 37 13 49 1 55 -61z m-5371 -205 c10 -90 1 -107 -51 -103 -23 1 -48
-3 -56 -9 -26 -22 -35 0 -35 85 l0 84 53 4 c85 6 81 8 89 -61z m5362 -68 c12
-31 6 -91 -10 -105 -14 -11 -18 -10 -30 6 -14 19 -19 71 -8 99 3 9 14 16 24
16 10 0 21 -7 24 -16z m16 -360 l0 -65 -37 3 c-38 3 -38 3 -41 52 -4 66 1 76
43 76 l35 0 0 -66z m-5352 -274 c4 -77 2 -90 -11 -90 -9 0 -19 5 -22 10 -10
16 -57 12 -77 -7 -15 -14 -21 -15 -27 -4 -13 21 -21 140 -11 166 8 22 13 23
35 15 18 -7 35 -6 58 4 18 8 36 10 41 5 6 -5 12 -49 14 -99z m5330 -31 c2 -41
-1 -59 -13 -69 -27 -23 -45 4 -39 58 8 66 12 74 31 70 14 -2 19 -15 21 -59z
m7 -272 c4 -13 5 -46 3 -73 -3 -49 -3 -49 -38 -49 l-35 0 -3 59 c-4 75 1 86
37 86 24 0 32 -5 36 -23z m-5286 -349 c14 -84 8 -95 -42 -79 -26 9 -41 9 -61
0 -16 -8 -30 -9 -36 -3 -5 5 -12 43 -16 85 l-7 77 44 -5 c30 -3 50 0 64 11 28
21 39 4 54 -86z m5263 -32 c-3 -82 -15 -120 -35 -113 -12 4 -23 158 -12 184 3
8 15 13 27 11 22 -3 23 -7 20 -82z"/>
</g>
</svg>
